<svg width="16" height="16" viewBox="0 0 32 32" fill="none" xmlns="http://www.w3.org/2000/svg">
<path d="M26.4335 23.4864L18.9471 16L26.4335 8.51352L26.4335 8.51354L26.4371 8.50994C26.8214 8.11779 27.0354 7.58982 27.0326 7.04076C27.0299 6.4917 26.8105 5.96592 26.4223 5.57767C26.034 5.18943 25.5082 4.97008 24.9592 4.96731C24.4101 4.96454 23.8822 5.17856 23.49 5.56287L23.49 5.56285L23.4864 5.56642L16 13.0529L8.51352 5.56642L8.51354 5.5664L8.50994 5.56286C8.11779 5.17856 7.58982 4.96454 7.04076 4.96731C6.4917 4.97008 5.96592 5.18943 5.57767 5.57767C5.18943 5.96592 4.97008 6.4917 4.96731 7.04076C4.96454 7.58982 5.17856 8.11779 5.56286 8.50994L5.56285 8.50995L5.56642 8.51352L13.0529 16L5.56642 23.4864L5.5664 23.4864L5.56287 23.49C5.17856 23.8822 4.96454 24.4101 4.96731 24.9592C4.97008 25.5082 5.18943 26.034 5.57768 26.4223C5.96592 26.8105 6.4917 27.0299 7.04076 27.0326C7.58982 27.0354 8.11779 26.8214 8.50994 26.4371L8.50995 26.4371L8.51352 26.4335L16 18.9471L23.4864 26.4335L23.4864 26.4335L23.49 26.4371C23.8822 26.8214 24.4101 27.0354 24.9592 27.0326C25.5082 27.0299 26.034 26.8105 26.4223 26.4223C26.8105 26.034 27.0299 25.5082 27.0326 24.9592C27.0354 24.4101 26.8214 23.8822 26.4371 23.49L26.4371 23.49L26.4335 23.4864Z" fill="current" stroke="current"/>
</svg>
