<svg width="40" height="40" viewBox="0 0 40 40" fill="none" xmlns="http://www.w3.org/2000/svg">
<path d="M4 20.1026C4 14.1076 4 11.1094 5.8752 9.24779C7.7488 7.38461 10.7664 7.38461 16.8 7.38461H23.2C29.2336 7.38461 32.2512 7.38461 34.1248 9.24779C36 11.1094 36 14.1076 36 20.1026V23.282C36 29.277 36 32.2752 34.1248 34.1368C32.2512 36 29.2336 36 23.2 36H16.8C10.7664 36 7.7488 36 5.8752 34.1368C4 32.2752 4 29.277 4 23.282V20.1026Z" stroke="#9C9AA8" stroke-width="2"/>
<path d="M12 7.38462V5M28 7.38462V5M4.80005 15.3333H35.2" stroke="#9C9AA8" stroke-width="2" stroke-linecap="round"/>
<path d="M29.5999 28.0513C29.5999 28.4729 29.4313 28.8773 29.1313 29.1754C28.8312 29.4735 28.4242 29.641 27.9999 29.641C27.5756 29.641 27.1686 29.4735 26.8685 29.1754C26.5685 28.8773 26.3999 28.4729 26.3999 28.0513C26.3999 27.6297 26.5685 27.2253 26.8685 26.9272C27.1686 26.629 27.5756 26.4615 27.9999 26.4615C28.4242 26.4615 28.8312 26.629 29.1313 26.9272C29.4313 27.2253 29.5999 27.6297 29.5999 28.0513ZM29.5999 21.6923C29.5999 22.1139 29.4313 22.5183 29.1313 22.8164C28.8312 23.1146 28.4242 23.2821 27.9999 23.2821C27.5756 23.2821 27.1686 23.1146 26.8685 22.8164C26.5685 22.5183 26.3999 22.1139 26.3999 21.6923C26.3999 21.2707 26.5685 20.8663 26.8685 20.5682C27.1686 20.2701 27.5756 20.1026 27.9999 20.1026C28.4242 20.1026 28.8312 20.2701 29.1313 20.5682C29.4313 20.8663 29.5999 21.2707 29.5999 21.6923ZM21.5999 28.0513C21.5999 28.4729 21.4313 28.8773 21.1313 29.1754C20.8312 29.4735 20.4242 29.641 19.9999 29.641C19.5756 29.641 19.1686 29.4735 18.8685 29.1754C18.5685 28.8773 18.3999 28.4729 18.3999 28.0513C18.3999 27.6297 18.5685 27.2253 18.8685 26.9272C19.1686 26.629 19.5756 26.4615 19.9999 26.4615C20.4242 26.4615 20.8312 26.629 21.1313 26.9272C21.4313 27.2253 21.5999 27.6297 21.5999 28.0513ZM21.5999 21.6923C21.5999 22.1139 21.4313 22.5183 21.1313 22.8164C20.8312 23.1146 20.4242 23.2821 19.9999 23.2821C19.5756 23.2821 19.1686 23.1146 18.8685 22.8164C18.5685 22.5183 18.3999 22.1139 18.3999 21.6923C18.3999 21.2707 18.5685 20.8663 18.8685 20.5682C19.1686 20.2701 19.5756 20.1026 19.9999 20.1026C20.4242 20.1026 20.8312 20.2701 21.1313 20.5682C21.4313 20.8663 21.5999 21.2707 21.5999 21.6923ZM13.5999 28.0513C13.5999 28.4729 13.4313 28.8773 13.1313 29.1754C12.8312 29.4735 12.4242 29.641 11.9999 29.641C11.5756 29.641 11.1686 29.4735 10.8685 29.1754C10.5685 28.8773 10.3999 28.4729 10.3999 28.0513C10.3999 27.6297 10.5685 27.2253 10.8685 26.9272C11.1686 26.629 11.5756 26.4615 11.9999 26.4615C12.4242 26.4615 12.8312 26.629 13.1313 26.9272C13.4313 27.2253 13.5999 27.6297 13.5999 28.0513ZM13.5999 21.6923C13.5999 22.1139 13.4313 22.5183 13.1313 22.8164C12.8312 23.1146 12.4242 23.2821 11.9999 23.2821C11.5756 23.2821 11.1686 23.1146 10.8685 22.8164C10.5685 22.5183 10.3999 22.1139 10.3999 21.6923C10.3999 21.2707 10.5685 20.8663 10.8685 20.5682C11.1686 20.2701 11.5756 20.1026 11.9999 20.1026C12.4242 20.1026 12.8312 20.2701 13.1313 20.5682C13.4313 20.8663 13.5999 21.2707 13.5999 21.6923Z" fill="#9C9AA8"/>
</svg>
