<svg width="40" height="40" viewBox="0 0 40 40" fill="none" xmlns="http://www.w3.org/2000/svg">
<path d="M7.20738 33.6872C9.13829 36 12.7321 36 19.9195 36H21.0804C28.2679 36 31.8618 36 33.7927 33.6872M7.20738 33.6872C5.27647 31.3746 5.93875 27.8634 7.26333 20.8411C8.2053 15.8472 8.6763 13.3503 10.4644 11.8751M33.7927 33.6872C35.7235 31.3746 35.0612 27.8634 33.7367 20.8411C32.7947 15.8472 32.3238 13.3503 30.5356 11.8751M30.5356 11.8751C28.7475 10.4 26.1918 10.4 21.0804 10.4H19.9195C14.8082 10.4 12.2525 10.4 10.4644 11.8751" stroke="#F55951" stroke-width="2"/>
<path d="M25.3286 18.4L26.9382 28" stroke="#F55951" stroke-width="2" stroke-linecap="round"/>
<path d="M15.6709 18.4L14.0613 28" stroke="#F55951" stroke-width="2" stroke-linecap="round"/>
<path d="M15.6709 10.4V8.8C15.6709 6.14904 17.8328 4 20.4997 4C23.1667 4 25.3285 6.14904 25.3285 8.8V10.4" stroke="#F55951" stroke-width="2" stroke-linecap="round"/>
</svg>
