<?xml version="1.0" standalone="no"?>
<!DOCTYPE svg PUBLIC "-//W3C//DTD SVG 20010904//EN"
 "http://www.w3.org/TR/2001/REC-SVG-20010904/DTD/svg10.dtd">
<svg version="1.0" xmlns="http://www.w3.org/2000/svg"
 width="512.000000pt" height="512.000000pt" viewBox="0 0 512.000000 512.000000"
 preserveAspectRatio="xMidYMid meet">

<g transform="translate(0.000000,512.000000) scale(0.100000,-0.100000)"
fill="#000000" stroke="none">
<path d="M2590 4694 c-685 -167 -1404 -342 -1598 -390 l-352 -86 0 -1937 0
-1937 25 -51 c34 -67 110 -137 193 -176 l67 -32 1778 -3 1777 -2 0 1920 0
1920 -160 0 -160 0 0 -1760 0 -1760 -1600 0 c-1648 0 -1617 -1 -1592 36 4 6
650 171 1436 367 786 196 1430 358 1432 360 2 2 3 866 2 1919 l-3 1915 -1245
-303z m1128 -1661 l-3 -1727 -1427 -357 c-785 -196 -1441 -359 -1458 -362
l-30 -6 0 1742 0 1742 1186 283 c652 156 1187 282 1189 280 2 -1 -521 -135
-1162 -295 -641 -161 -1167 -294 -1169 -296 -2 -2 -3 -767 -2 -1699 l3 -1695
50 12 c497 126 2720 689 2748 696 l37 10 0 1693 c0 931 3 1696 7 1699 33 34
33 47 31 -1720z m-301 1651 c-3 -3 -12 -4 -19 -1 -8 3 -5 6 6 6 11 1 17 -2 13
-5z m-40 -10 c-3 -3 -12 -4 -19 -1 -8 3 -5 6 6 6 11 1 17 -2 13 -5z m-40 -10
c-3 -3 -12 -4 -19 -1 -8 3 -5 6 6 6 11 1 17 -2 13 -5z m-40 -10 c-3 -3 -12 -4
-19 -1 -8 3 -5 6 6 6 11 1 17 -2 13 -5z m-40 -10 c-3 -3 -12 -4 -19 -1 -8 3
-5 6 6 6 11 1 17 -2 13 -5z m-40 -10 c-3 -3 -12 -4 -19 -1 -8 3 -5 6 6 6 11 1
17 -2 13 -5z m183 -506 c0 -95 -5 -190 -11 -211 -21 -76 -106 -146 -210 -173
-70 -18 -126 -12 -164 18 -50 39 -55 63 -55 257 l0 179 50 11 c28 6 55 11 60
11 5 0 10 -78 12 -174 3 -154 5 -176 22 -195 38 -42 131 -17 159 42 14 29 17
67 17 210 l0 176 43 9 c84 19 77 33 77 -160z m-600 -227 l0 -249 -69 -16 c-39
-9 -72 -16 -75 -16 -3 0 -46 60 -97 133 -51 72 -100 141 -108 153 -15 19 -16
6 -16 -160 l0 -180 -57 -12 -58 -11 0 247 0 247 58 13 c31 7 62 15 69 17 6 3
60 -63 118 -146 59 -83 109 -151 111 -151 1 0 2 80 1 177 l-2 177 50 12 c28 6
56 12 63 13 9 1 12 -55 12 -248z m-640 46 l0 -44 -100 -22 -100 -22 0 -53 0
-53 100 22 101 22 -3 -46 -3 -46 -95 -21 -95 -20 -3 -62 c-2 -37 1 -62 7 -62
6 0 49 9 96 20 47 11 88 20 90 20 3 0 5 -20 5 -45 0 -50 17 -41 -160 -85 -47
-12 -93 -23 -103 -26 -16 -5 -17 10 -15 247 l3 253 125 32 c69 18 131 33 138
33 8 1 12 -14 12 -42z m-472 -324 l-3 -247 -25 -6 c-14 -4 -42 -10 -64 -14
l-39 -7 5 197 c2 109 2 192 -1 184 -2 -8 -32 -103 -66 -210 l-61 -195 -49 -13
c-39 -11 -49 -12 -56 -1 -4 7 -34 90 -66 184 l-58 170 -3 -197 c-1 -109 -4
-198 -6 -198 -2 0 -20 -7 -40 -15 l-36 -15 0 249 0 249 71 17 c40 10 74 14 78
9 5 -5 32 -80 61 -166 29 -87 56 -158 59 -158 4 0 36 89 72 198 l65 197 65 17
c110 29 100 53 97 -229z m597 -446 c-23 -56 -19 -105 15 -162 49 -82 37 -156
-37 -226 l-35 -34 22 44 c25 50 22 97 -9 159 -28 57 -33 93 -18 144 13 42 65
124 74 115 2 -2 -4 -20 -12 -40z m414 -147 c-22 -59 -25 -127 -5 -155 35 -52
26 -118 -25 -175 -19 -22 -28 -27 -23 -15 17 46 15 101 -5 153 -25 63 -26 102
-5 145 13 26 72 97 80 97 1 0 -6 -23 -17 -50z m-835 -155 c-22 -52 -17 -122
11 -183 14 -30 25 -68 25 -85 0 -41 -33 -107 -72 -143 l-32 -29 28 38 c40 54
43 100 13 172 -46 113 -44 186 9 239 15 14 28 26 30 26 2 0 -4 -16 -12 -35z
m530 -265 c53 -20 40 -94 -23 -137 -45 -30 -89 -37 -142 -22 -40 11 -42 13
-19 18 17 5 21 9 12 15 -18 11 -15 37 10 63 12 13 17 23 11 23 -6 0 -16 -7
-23 -15 -19 -22 -32 -18 -20 6 24 45 133 72 194 49z m390 -185 c188 -51 325
-185 371 -360 21 -81 20 -132 -2 -139 -106 -32 -1507 -405 -1510 -402 -11 11
43 172 91 271 80 164 191 302 336 419 l35 28 -40 -23 c-173 -99 -321 -254
-421 -443 -53 -100 -107 -243 -101 -267 4 -13 -5 -20 -39 -28 -23 -6 -45 -11
-48 -11 -12 0 -5 81 14 156 24 97 93 238 159 324 68 90 201 216 296 280 150
101 355 184 520 210 82 12 267 4 339 -15z m561 -626 c-22 -22 -58 -51 -80 -64
-44 -25 -131 -49 -146 -40 -5 4 -9 2 -9 -3 0 -6 -20 -33 -45 -60 -32 -36 -59
-55 -93 -66 -120 -39 -1382 -376 -1408 -376 -16 0 -52 9 -80 19 -47 18 -56 19
-105 6 -30 -8 -66 -15 -80 -15 -36 0 -122 31 -112 40 4 4 375 107 823 229 448
121 937 254 1085 295 149 41 274 75 280 75 5 1 -9 -17 -30 -40z m-1718 -285
c-3 -3 -12 -4 -19 -1 -8 3 -5 6 6 6 11 1 17 -2 13 -5z m-40 -10 c-3 -3 -12 -4
-19 -1 -8 3 -5 6 6 6 11 1 17 -2 13 -5z"/>
<path d="M1959 2042 c-123 -130 -205 -286 -244 -466 -5 -26 -4 -28 17 -22 13
3 28 6 34 6 6 0 21 39 34 88 43 163 118 323 197 420 51 62 34 51 -38 -26z"/>
</g>
</svg>
