<svg width="40" height="40" viewBox="0 0 40 40" fill="none" xmlns="http://www.w3.org/2000/svg">
<path fill-rule="evenodd" clip-rule="evenodd" d="M19.9999 14.4186C16.9477 14.4186 14.4734 16.9175 14.4734 20C14.4734 23.0826 16.9477 25.5814 19.9999 25.5814C23.0521 25.5814 25.5264 23.0826 25.5264 20C25.5264 16.9175 23.0521 14.4186 19.9999 14.4186ZM16.684 20C16.684 18.1506 18.1686 16.6512 19.9999 16.6512C21.8312 16.6512 23.3158 18.1506 23.3158 20C23.3158 21.8495 21.8312 23.3488 19.9999 23.3488C18.1686 23.3488 16.684 21.8495 16.684 20Z" fill="#9C9AA8"/>
<path fill-rule="evenodd" clip-rule="evenodd" d="M19.9627 4C19.3078 3.99999 18.7609 3.99999 18.312 4.03091C17.8447 4.06312 17.4033 4.13254 16.9753 4.31156C15.9823 4.72698 15.1933 5.52378 14.782 6.52669C14.5678 7.04881 14.5098 7.59906 14.4877 8.19715C14.4699 8.67794 14.2296 9.07909 13.8751 9.28582C13.5205 9.49256 13.0564 9.50211 12.6352 9.27729C12.1113 8.99761 11.6105 8.7732 11.0557 8.69943C9.99 8.55774 8.91224 8.8494 8.05949 9.51024C7.692 9.79502 7.41176 10.1464 7.15049 10.539C6.8995 10.9162 6.62611 11.3945 6.2986 11.9674L6.26139 12.0325C5.93387 12.6054 5.66046 13.0836 5.46252 13.4917C5.25648 13.9165 5.0953 14.3373 5.03483 14.8011C4.89453 15.8774 5.18332 16.9658 5.83765 17.8271C6.17826 18.2753 6.62104 18.6012 7.12276 18.9196C7.52624 19.1756 7.75014 19.5864 7.75011 20C7.7501 20.4135 7.52619 20.8243 7.12276 21.0803C6.62098 21.3986 6.17815 21.7246 5.83751 22.1729C5.18318 23.034 4.8944 24.1225 5.03468 25.1987C5.09515 25.6625 5.25633 26.0834 5.46238 26.5082C5.66031 26.9163 5.93372 27.3945 6.26123 27.9674L6.29845 28.0326C6.62596 28.6055 6.89935 29.0837 7.15035 29.4608C7.41161 29.8535 7.69185 30.2049 8.05934 30.4896C8.91209 31.1504 9.98985 31.4422 11.0555 31.3005C11.6103 31.2266 12.1111 31.0023 12.635 30.7227C13.0562 30.4978 13.5204 30.5073 13.875 30.7142C14.2296 30.9209 14.4699 31.322 14.4877 31.8029C14.5098 32.401 14.5679 32.9512 14.782 33.4733C15.1933 34.4762 15.9823 35.2731 16.9753 35.6885C17.4033 35.8675 17.8447 35.9369 18.312 35.969C18.7609 36 19.3078 36 19.9627 36H20.0371C20.6922 36 21.239 36 21.688 35.969C22.1553 35.9369 22.5967 35.8675 23.0247 35.6885C24.0177 35.2731 24.8067 34.4762 25.218 33.4733C25.4322 32.9512 25.4901 32.401 25.5122 31.8028C25.53 31.322 25.7703 30.9209 26.1248 30.714C26.4794 30.5073 26.9436 30.4978 27.3648 30.7225C27.8887 31.0022 28.3895 31.2266 28.9444 31.3003C30.01 31.442 31.0878 31.1504 31.9405 30.4896C32.308 30.2047 32.5882 29.8535 32.8495 29.4608C33.1005 29.0837 33.3738 28.6055 33.7013 28.0326L33.7386 27.9674C34.066 27.3945 34.3396 26.9162 34.5375 26.5081C34.7435 26.0833 34.9046 25.6625 34.9652 25.1987C35.1055 24.1223 34.8166 23.0339 34.1623 22.1727C33.8217 21.7244 33.3788 21.3986 32.8772 21.0803C32.4737 20.8243 32.2498 20.4135 32.2498 19.9999C32.2498 19.5864 32.4737 19.1757 32.877 18.9197C33.379 18.6014 33.8218 18.2756 34.1624 17.8271C34.8168 16.9659 35.1056 15.8775 34.9653 14.8012C34.9047 14.3374 34.7437 13.9166 34.5376 13.4918C34.3397 13.0837 34.0663 12.6055 33.7387 12.0327L33.7016 11.9675C33.374 11.3946 33.1006 10.9163 32.8496 10.5391C32.5883 10.1465 32.3082 9.79513 31.9406 9.51033C31.0879 8.8495 30.0102 8.55784 28.9444 8.69954C28.3897 8.7733 27.8889 8.99769 27.365 9.27735C26.9438 9.5022 26.4796 9.49263 26.125 9.28586C25.7704 9.07911 25.53 8.67791 25.5122 8.19708C25.4901 7.599 25.4322 7.04878 25.218 6.52669C24.8067 5.52378 24.0177 4.72698 23.0247 4.31156C22.5967 4.13254 22.1553 4.06312 21.688 4.03091C21.239 3.99999 20.6922 3.99999 20.0371 4H19.9627ZM17.8212 6.37418C17.935 6.32661 18.1077 6.28275 18.4624 6.25829C18.8272 6.23317 19.2982 6.23256 20 6.23256C20.7018 6.23256 21.1728 6.23317 21.5374 6.25829C21.8923 6.28275 22.065 6.32661 22.1786 6.37418C22.63 6.56301 22.9887 6.92519 23.1756 7.38106C23.2347 7.52485 23.2835 7.74902 23.3032 8.28051C23.3468 9.45987 23.9496 10.5954 25.0197 11.2193C26.0896 11.8432 27.3648 11.8026 28.3979 11.2512C28.8635 11.0026 29.0803 10.9333 29.2329 10.913C29.7174 10.8486 30.2072 10.9812 30.5948 11.2815C30.6925 11.3572 30.8165 11.4863 31.0148 11.7844C31.2188 12.0908 31.4547 12.5025 31.8056 13.1163C32.1565 13.7301 32.3916 14.1423 32.5524 14.4739C32.7087 14.7964 32.7575 14.9694 32.7736 15.0926C32.8374 15.5818 32.7061 16.0766 32.4087 16.4681C32.3148 16.5916 32.1471 16.7464 31.701 17.0294C30.7117 17.6573 30.0394 18.7521 30.0392 19.9999C30.0392 21.2477 30.7115 22.3427 31.701 22.9706C32.1469 23.2536 32.3147 23.4084 32.4085 23.5319C32.7059 23.9233 32.8372 24.4181 32.7734 24.9073C32.7574 25.0305 32.7086 25.2035 32.5522 25.526C32.3914 25.8575 32.1564 26.2698 31.8055 26.8836C31.4546 27.4974 31.2186 27.9091 31.0147 28.2155C30.8163 28.5135 30.6924 28.6427 30.5947 28.7183C30.2071 29.0188 29.7172 29.1513 29.2328 29.087C29.0801 29.0666 28.8633 28.9972 28.3978 28.7488C27.3647 28.1972 26.0895 28.1567 25.0194 28.7807C23.9496 29.4046 23.3468 30.5401 23.3032 31.7194C23.2835 32.2509 23.2347 32.4751 23.1756 32.619C22.9887 33.0748 22.63 33.437 22.1786 33.6259C22.065 33.6734 21.8923 33.7173 21.5374 33.7417C21.1728 33.7668 20.7018 33.7674 20 33.7674C19.2982 33.7674 18.8272 33.7668 18.4624 33.7417C18.1077 33.7173 17.935 33.6734 17.8212 33.6259C17.37 33.437 17.0113 33.0748 16.8243 32.619C16.7653 32.4751 16.7164 32.2509 16.6968 31.7194C16.6531 30.5402 16.0503 29.4046 14.9803 28.7807C13.9103 28.1567 12.6352 28.1974 11.602 28.7488C11.1364 28.9974 10.9198 29.0667 10.767 29.087C10.2826 29.1514 9.79269 29.0188 9.40509 28.7184C9.30744 28.6428 9.18345 28.5136 8.9851 28.2155C8.78121 27.9092 8.54519 27.4975 8.19429 26.8837C7.84338 26.2699 7.60841 25.8576 7.44761 25.5262C7.29119 25.2036 7.24244 25.0305 7.22638 24.9073C7.16261 24.4181 7.29387 23.9233 7.5913 23.5319C7.68512 23.4085 7.8529 23.2536 8.29884 22.9706C9.28828 22.3428 9.96065 21.2479 9.96071 20.0001C9.96079 18.7521 9.28838 17.6572 8.29886 17.0292C7.85302 16.7463 7.68525 16.5914 7.59143 16.468C7.29402 16.0765 7.16275 15.5818 7.22652 15.0925C7.24259 14.9693 7.29134 14.7963 7.44776 14.4738C7.60856 14.1422 7.84353 13.73 8.19443 13.1162C8.54534 12.5024 8.78134 12.0907 8.98525 11.7843C9.1836 11.4863 9.30758 11.3571 9.40522 11.2814C9.79284 10.9811 10.2827 10.8485 10.7671 10.9129C10.9199 10.9332 11.1366 11.0025 11.6023 11.2511C12.6353 11.8026 13.9104 11.8432 14.9804 11.2193C16.0504 10.5954 16.6531 9.4599 16.6968 8.28059C16.7164 7.74905 16.7653 7.52487 16.8243 7.38106C17.0113 6.92519 17.37 6.56301 17.8212 6.37418Z" fill="#9C9AA8"/>
</svg>
