<svg width="40" height="40" viewBox="0 0 40 40" fill="none" xmlns="http://www.w3.org/2000/svg">
<path d="M35.0588 16.6263H33.4541C33.2051 13.1951 31.6795 9.98612 29.1838 7.64397C26.6881 5.30182 23.4071 4 20 4C16.5929 4 13.3119 5.30182 10.8162 7.64397C8.32049 9.98612 6.7949 13.1951 6.54588 16.6263H4.94118C4.69156 16.6263 4.45217 16.7264 4.27566 16.9047C4.09916 17.0829 4 17.3246 4 17.5767C4.0056 20.5647 4.82894 23.4931 6.37911 26.0384C7.92927 28.5837 10.1459 30.6468 12.7843 32V32.7825C12.7843 33.3706 13.0157 33.9346 13.4275 34.3505C13.8394 34.7664 14.398 35 14.9804 35H25.0196C25.602 35 26.1606 34.7664 26.5725 34.3505C26.9843 33.9346 27.2157 33.3706 27.2157 32.7825V32C29.8541 30.6468 32.0707 28.5837 33.6209 26.0384C35.1711 23.4931 35.9944 20.5647 36 17.5767C36 17.3246 35.9008 17.0829 35.7243 16.9047C35.5478 16.7264 35.3084 16.6263 35.0588 16.6263ZM27.2533 8.43575C27.7088 8.80407 28.1361 9.20647 28.5318 9.63954C26.7847 10.1886 25.1667 11.0913 23.7765 12.2925C22.3862 13.4937 21.2529 14.9683 20.4455 16.6263H15.1906C15.9319 14.2424 17.4058 12.159 19.3988 10.678C21.3917 9.19702 23.8001 8.39555 26.2745 8.38981C26.6008 8.38981 26.9286 8.40724 27.2533 8.43575ZM29.7726 11.2631C30.7987 12.8745 31.4151 14.7167 31.5671 16.6263H22.5851C23.372 15.2965 24.4125 14.1377 25.6463 13.2171C26.8801 12.2964 28.2826 11.6323 29.7726 11.2631ZM20 5.85551C21.4379 5.85314 22.8636 6.12173 24.2039 6.64748C21.615 7.06015 19.2003 8.22267 17.2529 9.99398C15.3054 11.7653 13.909 14.0693 13.2329 16.6263H8.43294C8.67248 13.6935 9.99446 10.9587 12.1369 8.96374C14.2793 6.96882 17.0857 5.85945 20 5.85551ZM25.8824 30.5396C25.7184 30.6155 25.5795 30.7374 25.4822 30.8907C25.3848 31.044 25.3332 31.2223 25.3333 31.4045V32.7825C25.3333 32.8665 25.3003 32.9471 25.2414 33.0065C25.1826 33.0659 25.1028 33.0993 25.0196 33.0993H14.9804C14.8972 33.0993 14.8174 33.0659 14.7586 33.0065C14.6997 32.9471 14.6667 32.8665 14.6667 32.7825V31.4045C14.6668 31.2223 14.6152 31.044 14.5178 30.8907C14.4205 30.7374 14.2816 30.6155 14.1176 30.5396C11.8088 29.4645 9.82894 27.782 8.38553 25.6685C6.94213 23.555 6.08836 21.0883 5.91373 18.527H34.0863C33.9116 21.0883 33.0579 23.555 31.6145 25.6685C30.1711 27.782 28.1912 29.4645 25.8824 30.5396Z" fill="#9C9AA8"/>
</svg>
