<svg width="24" height="24" viewBox="0 0 24 24" fill="none" xmlns="http://www.w3.org/2000/svg">
<path d="M2.53186 17.1977C3.16686 19.7442 3.48437 21.0174 4.43137 21.7587C5.37838 22.5 6.68746 22.5 9.30563 22.5H14.6943C17.3126 22.5 18.6216 22.5 19.5686 21.7587C20.5157 21.0174 20.8331 19.7442 21.4682 17.1977C22.4665 13.194 22.9657 11.1921 21.9175 9.8461C20.8692 8.5 18.8109 8.5 14.6943 8.5H9.30563C5.18913 8.5 3.13088 8.5 2.08257 9.8461C1.46721 10.6362 1.38509 11.6523 1.62415 13.1667" stroke="#F55951" stroke-width="1.5" stroke-linecap="round"/>
<path d="M20.4556 9.08329L19.6289 6.04372C19.3102 4.87168 19.1507 4.28567 18.8238 3.84433C18.4982 3.40481 18.0558 3.06602 17.5473 2.86673C17.0365 2.66663 11.9307 2.66663 10.7189 2.66663M3 9.08329L3.8267 6.04372C4.14546 4.87168 4.30484 4.28567 4.63176 3.84433C4.95734 3.40481 5.39975 3.06602 5.90836 2.86673C6.41906 2.66663 10.0249 2.66663 11.2367 2.66663" stroke="#F55951" stroke-width="1.5"/>
<path d="M7.5 15C7.5 15.2673 7.72364 15.4854 7.98546 15.4854H11.5146V19.0146C11.5146 19.2764 11.7327 19.5 12 19.5C12.2673 19.5 12.4909 19.2764 12.4909 19.0146V15.4854H16.0146C16.2764 15.4854 16.5 15.2673 16.5 15C16.5 14.7327 16.2764 14.5091 16.0146 14.5091H12.4909V10.9855C12.4909 10.7236 12.2673 10.5 12 10.5C11.7327 10.5 11.5146 10.7236 11.5146 10.9855V14.5091H7.98546C7.72364 14.5091 7.5 14.7327 7.5 15Z" fill="#F55951" stroke="#F55951" stroke-width="0.5"/>
</svg>
