<svg width="16" height="16" viewBox="0 0 16 16" fill="none" xmlns="http://www.w3.org/2000/svg">
<path d="M8.82192 3.83414C9.09056 3.5 9.03664 3.01205 8.70144 2.74425C8.36634 2.47646 7.87697 2.53023 7.60843 2.86437L8.82192 3.83414ZM2.10006 10.9568L2.689 11.4631C2.69507 11.456 2.70102 11.4489 2.70683 11.4417L2.10006 10.9568ZM1.92276 11.3889L1.14667 11.3384L1.14598 11.3531L1.92276 11.3889ZM1.77761 14.514L1.00083 14.4782C0.999047 14.5166 1.00014 14.5552 1.00411 14.5935L1.77761 14.514ZM2.59358 15.2242L2.619 15.9991C2.67086 15.9974 2.72241 15.9906 2.77291 15.9786L2.59358 15.2242ZM5.70402 14.4892L5.88339 15.2437L5.89541 15.2407L5.70402 14.4892ZM6.10319 14.237L6.70309 14.7304L6.70983 14.722L6.10319 14.237ZM12.9722 6.93565C13.2408 6.60154 13.187 6.1136 12.852 5.8457C12.517 5.57781 12.0275 5.63147 11.7589 5.96556L12.9722 6.93565ZM7.61165 2.86416C7.34301 3.1982 7.39672 3.68617 7.73181 3.95409C8.06681 4.22199 8.55618 4.16838 8.82492 3.83434L7.61165 2.86416ZM9.86474 1.30238L10.4714 1.78747C10.4815 1.77477 10.4914 1.76174 10.5008 1.74842L9.86474 1.30238ZM11.5537 0.97157L12.0512 0.375662C12.0264 0.35511 12.0004 0.33612 11.9733 0.318784L11.5537 0.97157ZM13.8731 2.89645L14.4234 2.34872C14.4065 2.33186 14.3889 2.31579 14.3705 2.30055L13.8731 2.89645ZM13.8637 4.58977L13.3194 4.03604C13.2974 4.05759 13.2767 4.08041 13.2573 4.10441L13.8637 4.58977ZM11.7589 5.96556C11.4901 6.29947 11.5439 6.7871 11.8788 7.05516C12.2136 7.32321 12.7033 7.26956 12.9722 6.93565L11.7589 5.96556ZM8.98729 3.23435C8.92363 2.81088 8.52777 2.51902 8.1031 2.58249C7.67831 2.64594 7.38562 3.04068 7.44928 3.46415L8.98729 3.23435ZM12.4703 7.2188C12.8958 7.16122 13.1938 6.77045 13.1361 6.34619C13.0782 5.92187 12.6864 5.62464 12.2608 5.6823L12.4703 7.2188ZM7.60843 2.86437L1.49328 10.4719L2.70683 11.4417L8.82192 3.83414L7.60843 2.86437ZM1.51112 10.4505C1.29612 10.6991 1.1681 11.0108 1.14667 11.3384L2.69872 11.4394C2.69815 11.4481 2.69474 11.4564 2.689 11.4631L1.51112 10.4505ZM1.14598 11.3531L1.00083 14.4782L2.55439 14.5499L2.69954 11.4248L1.14598 11.3531ZM1.00411 14.5935C1.08878 15.4122 1.79407 16.026 2.619 15.9991L2.56816 14.4493C2.56484 14.4494 2.56321 14.4489 2.56216 14.4485C2.56067 14.448 2.55871 14.4469 2.55671 14.4452C2.5547 14.4434 2.5534 14.4417 2.55267 14.4403C2.55214 14.4393 2.55145 14.4377 2.55111 14.4344L1.00411 14.5935ZM2.77291 15.9786L5.88339 15.2437L5.52465 13.7348L2.41425 14.4698L2.77291 15.9786ZM5.89541 15.2407C6.21216 15.1604 6.4951 14.9818 6.70309 14.7304L5.50329 13.7436C5.50578 13.7407 5.50899 13.7386 5.51262 13.7377L5.89541 15.2407ZM6.70983 14.722L12.9722 6.93565L11.7589 5.96556L5.49655 13.7519L6.70983 14.722ZM8.82492 3.83434L10.4714 1.78747L9.25811 0.81729L7.61165 2.86416L8.82492 3.83434ZM10.5008 1.74842C10.6445 1.54464 10.9237 1.48994 11.1341 1.62437L11.9733 0.318784C11.0616 -0.263706 9.85158 -0.0267033 9.22866 0.856345L10.5008 1.74842ZM11.0562 1.56748L13.3756 3.49236L14.3705 2.30055L12.0512 0.375662L11.0562 1.56748ZM13.3227 3.4442C13.4014 3.52286 13.4454 3.62965 13.4448 3.7408L15 3.74932C15.0029 3.22446 14.7953 2.72021 14.4234 2.34872L13.3227 3.4442ZM13.4448 3.7408C13.4442 3.85195 13.399 3.95824 13.3194 4.03604L14.4081 5.14351C14.784 4.77612 14.9971 4.27417 15 3.74932L13.4448 3.7408ZM13.2573 4.10441L11.7589 5.96556L12.9722 6.93565L14.4702 5.07515L13.2573 4.10441ZM7.44928 3.46415C7.81144 5.87418 10.0484 7.54692 12.4703 7.2188L12.2608 5.6823C10.6819 5.89621 9.22348 4.80562 8.98729 3.23435L7.44928 3.46415Z" fill="current"/>
</svg>
