<svg width="24" height="24" viewBox="0 0 24 24" fill="none" xmlns="http://www.w3.org/2000/svg">
<path d="M12.0028 19.3304C13.6148 19.3304 15.0902 19.0587 16.4315 18.6192L15.0405 17.2684C14.0875 17.542 13.0797 17.7068 12.0028 17.7068C6.41505 17.7068 1.97815 13.1854 1.97815 12.0058C1.97815 11.4378 3.46824 9.59837 5.85937 8.17504L4.54678 6.90472C1.68853 8.66032 0 10.9909 0 12.0058C0 13.7369 4.93842 19.3304 12.0028 19.3304ZM12.0028 4.68433C10.4814 4.68433 9.0951 4.9367 7.81275 5.34834L9.21092 6.69771C10.0962 6.45041 11.0093 6.30789 12.0028 6.30789C17.5834 6.30789 22.0219 11.017 22.0219 12.0058C22.0219 12.6685 20.6097 14.3977 18.3585 15.7664L19.6545 17.0267C22.391 15.278 24 12.9999 24 12.0058C24 10.2709 19.164 4.68433 12.0028 4.68433ZM12.0028 16.5685C12.6802 16.5685 13.3188 16.4097 13.8912 16.1507L7.70669 10.1583C7.43069 10.7115 7.27556 11.337 7.27556 12.0074C7.28272 14.4896 9.37586 16.5685 12.0028 16.5685ZM16.3625 13.6414C16.594 13.1384 16.7188 12.5798 16.7188 12.0043C16.7188 9.46043 14.6185 7.44619 12.0044 7.44619C11.3977 7.44619 10.8284 7.56721 10.3092 7.77608L16.3625 13.6414Z" fill="#F55951"/>
<path d="M18.8862 19.4735C19.1576 19.7435 19.5926 19.7573 19.8696 19.4735C20.1611 19.1896 20.1395 18.7905 19.8696 18.5205L5.07867 4.19728C4.80721 3.93424 4.3635 3.93424 4.08645 4.19728C3.82372 4.45185 3.82372 4.89718 4.08645 5.15023L18.8862 19.4735Z" fill="#F55951"/>
</svg>
