<svg width="24" height="24" viewBox="0 0 24 24" fill="none" xmlns="http://www.w3.org/2000/svg">
<path d="M12.0028 20C19.164 20 24 13.8955 24 12.0062C24 10.1128 19.1568 4.01587 12.0028 4.01587C4.94559 4.01587 0 10.1128 0 12.0062C0 13.8955 4.93842 20 12.0028 20ZM12.0028 18.2281C6.41505 18.2281 1.97815 13.2937 1.97815 12.0062C1.97815 10.9271 6.41505 5.78777 12.0028 5.78777C17.569 5.78777 22.0219 10.9271 22.0219 12.0062C22.0219 13.2937 17.569 18.2281 12.0028 18.2281ZM12.0044 16.9859C14.6218 16.9859 16.7188 14.717 16.7188 12.0062C16.7188 9.22834 14.6218 7.03173 12.0044 7.03173C9.37586 7.03173 7.2684 9.22668 7.27556 12.0062C7.28989 14.717 9.37586 16.9859 12.0044 16.9859ZM12.0012 13.6195C11.1526 13.6195 10.4676 12.8885 10.4676 12.0062C10.4676 11.1164 11.1526 10.3964 12.0012 10.3964C12.8474 10.3964 13.5339 11.1164 13.5339 12.0062C13.5339 12.8885 12.8474 13.6195 12.0012 13.6195Z" fill="#F55951"/>
</svg>
