<svg width="16" height="16" viewBox="0 0 16 16" fill="none" xmlns="http://www.w3.org/2000/svg">
<path d="M0 7.99514C0 8.47001 0.397577 8.85761 0.863033 8.85761H7.13698V15.1278C7.13698 15.593 7.52486 15.9902 8.00002 15.9902C8.47518 15.9902 8.87278 15.593 8.87278 15.1278V8.85761H15.137C15.6025 8.85761 16 8.47001 16 7.99514C16 7.52027 15.6025 7.12294 15.137 7.12294H8.87278V0.862507C8.87278 0.397334 8.47518 0 8.00002 0C7.52486 0 7.13698 0.397334 7.13698 0.862507V7.12294H0.863033C0.397577 7.12294 0 7.52027 0 7.99514Z" fill="#F55951"/>
</svg>
